<svg version="1.2" xmlns="http://www.w3.org/2000/svg" viewBox="0 0 800 800" width="800" height="800"><style>.a{opacity:1;fill:#ff0f0f}.b{fill:#fff}</style><path class="a" d="m283 128.1c-14 0.4-37.4 1.3-52 1.9-14.6 0.6-36.8 1.7-49.5 2.6-12.7 0.8-31.6 2.3-42 3.4-10.4 1.1-23 2.7-28 3.6-5 0.8-12.4 2.4-16.5 3.6-4.1 1.1-10.7 3.4-14.5 5.2-3.8 1.8-9.7 5-13 7.2-3.3 2.1-9.1 6.8-12.9 10.4-3.8 3.6-8.8 9-11.1 12-2.4 3-6.1 8.9-8.3 13-2.3 4.1-5.1 10.2-6.2 13.5-1.1 3.3-2.8 8.9-3.6 12.5-0.8 3.6-2.2 9.9-2.9 14-0.8 4.1-2.4 14-3.5 22-1.1 8-2.6 21.9-3.5 31-0.8 9.1-2.2 29.6-3 45.5-1.2 21.6-1.5 42.8-1.2 83.5 0.2 30 0.9 61 1.5 69 0.6 8 1.9 22.6 2.8 32.5 0.8 9.9 2.7 25.6 4 35 1.3 9.4 3.6 22.2 5 28.5 1.4 6.3 3.9 14.9 5.5 19 1.6 4.1 5.1 11.1 7.8 15.5 2.7 4.4 7.8 11.1 11.3 15 3.6 3.9 9.6 9.3 13.4 12.2 3.8 2.8 11.2 7.2 16.4 9.7 5.2 2.5 13.1 5.5 17.5 6.6 4.4 1.1 12.2 2.7 17.3 3.5 5 0.8 17.9 2.4 28.4 3.5 10.6 1 30.3 2.6 43.8 3.4 13.5 0.9 36.7 2 51.5 2.6 14.8 0.5 42.5 1.5 61.5 2 19 0.5 64.4 1 101 1 36.6 0 82.3-0.5 101.5-1 19.3-0.5 46.9-1.4 61.5-2 14.6-0.6 37.5-1.7 51-2.6 13.5-0.8 33.2-2.4 43.8-3.4 10.5-1.1 23.4-2.7 28.5-3.5 5-0.8 12.8-2.4 17.2-3.5 4.4-1.1 12.3-4.1 17.5-6.6 5.2-2.5 12.6-6.9 16.4-9.7 3.8-2.9 9.8-8.3 13.4-12.2 3.5-3.9 8.6-10.6 11.3-15 2.7-4.4 6.2-11.4 7.8-15.5 1.6-4.1 4.1-12.7 5.5-19 1.4-6.3 3.7-19.4 5-29 1.4-9.6 3.2-25.1 4-34.5 0.8-9.4 1.7-20.6 2.1-25 0.3-4.4 0.6-11.3 0.7-15.2 0.2-4 0.6-7.3 1.1-7.3 0.4 0 0.7-25.1 0.7-55.7 0-36.5-0.5-65.1-1.5-82.8-0.8-14.9-2.2-34.6-3-44-0.9-9.4-2.5-23.5-3.6-31.5-1.1-8-2.6-17.9-3.4-22-0.8-4.1-2.1-10.4-2.9-14-0.8-3.6-2.5-9.2-3.6-12.5-1.1-3.3-3.9-9.4-6.2-13.5-2.2-4.1-5.9-10-8.3-13-2.3-3-7.4-8.5-11.4-12.2-3.9-3.8-9.5-8.3-12.3-10.2-2.9-1.8-7.7-4.5-10.5-6-2.9-1.4-8.6-3.7-12.5-5-4-1.4-12.5-3.4-18.8-4.5-6.3-1.2-20-3-30.5-4.1-10.5-1.1-28.9-2.6-41-3.4-12.1-0.8-37.1-2-55.5-2.7-18.4-0.6-34.5-1.5-35.7-2-1.4-0.5-47.9-0.8-111-0.7-59.9 0-120.3 0.5-134.3 0.9z"/><path class="b" d="m222.1 282.2v-75.2h355.8v75.2h-128v310.8h-99.5v-310.8z"/></svg>